<svg width="343" height="726" viewBox="0 0 343 726" fill="none" xmlns="http://www.w3.org/2000/svg">
<g filter="url(#filter0_d_876_985)">
<rect y="223" width="100" height="48" rx="24" fill="white" shape-rendering="crispEdges"/>
<rect x="0.5" y="223.5" width="99" height="47" rx="23.5" stroke="#333333" shape-rendering="crispEdges"/>
<path d="M29.1868 245H27.7777C27.6944 244.595 27.5485 244.239 27.3402 243.932C27.1357 243.625 26.8857 243.367 26.5902 243.159C26.2985 242.947 25.9747 242.788 25.6186 242.682C25.2625 242.576 24.8913 242.523 24.505 242.523C23.8004 242.523 23.1622 242.701 22.5902 243.057C22.022 243.413 21.5694 243.938 21.2322 244.631C20.8989 245.324 20.7322 246.174 20.7322 247.182C20.7322 248.189 20.8989 249.04 21.2322 249.733C21.5694 250.426 22.022 250.951 22.5902 251.307C23.1622 251.663 23.8004 251.841 24.505 251.841C24.8913 251.841 25.2625 251.788 25.6186 251.682C25.9747 251.576 26.2985 251.419 26.5902 251.21C26.8857 250.998 27.1357 250.739 27.3402 250.432C27.5485 250.121 27.6944 249.765 27.7777 249.364H29.1868C29.0807 249.958 28.8875 250.491 28.6072 250.96C28.3269 251.43 27.9785 251.83 27.5618 252.159C27.1451 252.485 26.6773 252.733 26.1584 252.903C25.6432 253.074 25.0921 253.159 24.505 253.159C23.5125 253.159 22.63 252.917 21.8572 252.432C21.0845 251.947 20.4766 251.258 20.0334 250.364C19.5902 249.47 19.3686 248.409 19.3686 247.182C19.3686 245.955 19.5902 244.894 20.0334 244C20.4766 243.106 21.0845 242.417 21.8572 241.932C22.63 241.447 23.5125 241.205 24.505 241.205C25.0921 241.205 25.6432 241.29 26.1584 241.46C26.6773 241.631 27.1451 241.881 27.5618 242.21C27.9785 242.536 28.3269 242.934 28.6072 243.403C28.8875 243.869 29.0807 244.402 29.1868 245ZM31.282 253V244.273H32.5774V245.591H32.6683C32.8274 245.159 33.1153 244.809 33.532 244.54C33.9486 244.271 34.4183 244.136 34.9411 244.136C35.0395 244.136 35.1626 244.138 35.3104 244.142C35.4581 244.146 35.5698 244.152 35.6456 244.159V245.523C35.6001 245.511 35.496 245.494 35.3331 245.472C35.174 245.445 35.0054 245.432 34.8274 245.432C34.4032 245.432 34.0244 245.521 33.6911 245.699C33.3615 245.873 33.1001 246.116 32.907 246.426C32.7176 246.733 32.6229 247.083 32.6229 247.477V253H31.282ZM40.6286 253.182C39.7876 253.182 39.0623 252.996 38.4524 252.625C37.8464 252.25 37.3786 251.727 37.049 251.057C36.7232 250.383 36.5604 249.598 36.5604 248.705C36.5604 247.811 36.7232 247.023 37.049 246.341C37.3786 245.655 37.8369 245.121 38.424 244.739C39.0149 244.352 39.7043 244.159 40.4922 244.159C40.9467 244.159 41.3956 244.235 41.8388 244.386C42.282 244.538 42.6854 244.784 43.049 245.125C43.4126 245.462 43.7024 245.909 43.9183 246.466C44.1342 247.023 44.2422 247.708 44.2422 248.523V249.091H37.5149V247.932H42.8786C42.8786 247.439 42.7801 247 42.5831 246.614C42.3899 246.227 42.1134 245.922 41.7536 245.699C41.3975 245.475 40.977 245.364 40.4922 245.364C39.9581 245.364 39.496 245.496 39.1058 245.761C38.7195 246.023 38.4221 246.364 38.2138 246.784C38.0054 247.205 37.9013 247.655 37.9013 248.136V248.909C37.9013 249.568 38.0149 250.127 38.2422 250.585C38.4732 251.04 38.7933 251.386 39.2024 251.625C39.6115 251.86 40.0869 251.977 40.6286 251.977C40.9808 251.977 41.299 251.928 41.5831 251.83C41.871 251.727 42.1191 251.576 42.3274 251.375C42.5357 251.17 42.6967 250.917 42.8104 250.614L44.1058 250.977C43.9695 251.417 43.7403 251.803 43.4183 252.136C43.0964 252.466 42.6986 252.723 42.2251 252.909C41.7517 253.091 41.2195 253.182 40.6286 253.182ZM48.8501 253.205C48.2971 253.205 47.7952 253.1 47.3445 252.892C46.8937 252.68 46.5357 252.375 46.2706 251.977C46.0054 251.576 45.8729 251.091 45.8729 250.523C45.8729 250.023 45.9714 249.617 46.1683 249.307C46.3653 248.992 46.6286 248.746 46.9581 248.568C47.2876 248.39 47.6513 248.258 48.049 248.17C48.4505 248.08 48.8539 248.008 49.2592 247.955C49.7895 247.886 50.2195 247.835 50.549 247.801C50.8823 247.763 51.1248 247.701 51.2763 247.614C51.4316 247.527 51.5092 247.375 51.5092 247.159V247.114C51.5092 246.553 51.3558 246.117 51.049 245.807C50.746 245.496 50.2857 245.341 49.6683 245.341C49.0282 245.341 48.5263 245.481 48.1626 245.761C47.799 246.042 47.5433 246.341 47.3956 246.659L46.1229 246.205C46.3501 245.674 46.6532 245.261 47.032 244.966C47.4145 244.667 47.8312 244.458 48.282 244.341C48.7365 244.22 49.1835 244.159 49.6229 244.159C49.9032 244.159 50.2251 244.193 50.5888 244.261C50.9562 244.326 51.3104 244.46 51.6513 244.665C51.996 244.869 52.282 245.178 52.5092 245.591C52.7365 246.004 52.8501 246.557 52.8501 247.25V253H51.5092V251.818H51.4411C51.3501 252.008 51.1986 252.21 50.9865 252.426C50.7744 252.642 50.4922 252.826 50.1399 252.977C49.7876 253.129 49.3577 253.205 48.8501 253.205ZM49.0547 252C49.585 252 50.032 251.896 50.3956 251.688C50.763 251.479 51.0395 251.21 51.2251 250.881C51.4145 250.551 51.5092 250.205 51.5092 249.841V248.614C51.4524 248.682 51.3274 248.744 51.1342 248.801C50.9448 248.854 50.7251 248.902 50.4751 248.943C50.2289 248.981 49.9884 249.015 49.7536 249.045C49.5225 249.072 49.335 249.095 49.1911 249.114C48.8426 249.159 48.5168 249.233 48.2138 249.335C47.9145 249.434 47.6721 249.583 47.4865 249.784C47.3047 249.981 47.2138 250.25 47.2138 250.591C47.2138 251.057 47.3861 251.409 47.7308 251.648C48.0793 251.883 48.5206 252 49.0547 252ZM59.093 244.273V245.409H54.5703V244.273H59.093ZM55.8885 242.182H57.2294V250.5C57.2294 250.879 57.2843 251.163 57.3942 251.352C57.5078 251.538 57.6518 251.663 57.826 251.727C58.004 251.788 58.1915 251.818 58.3885 251.818C58.5362 251.818 58.6574 251.811 58.7521 251.795C58.8468 251.777 58.9226 251.761 58.9794 251.75L59.2521 252.955C59.1612 252.989 59.0343 253.023 58.8714 253.057C58.7086 253.095 58.5021 253.114 58.2521 253.114C57.8733 253.114 57.5021 253.032 57.1385 252.869C56.7786 252.706 56.4794 252.458 56.2408 252.125C56.0059 251.792 55.8885 251.371 55.8885 250.864V242.182ZM61.1101 253V244.273H62.451V253H61.1101ZM61.7919 242.818C61.5305 242.818 61.3052 242.729 61.1158 242.551C60.9302 242.373 60.8374 242.159 60.8374 241.909C60.8374 241.659 60.9302 241.445 61.1158 241.267C61.3052 241.089 61.5305 241 61.7919 241C62.0533 241 62.2768 241.089 62.4624 241.267C62.6518 241.445 62.7464 241.659 62.7464 241.909C62.7464 242.159 62.6518 242.373 62.4624 242.551C62.2768 242.729 62.0533 242.818 61.7919 242.818ZM72.0433 244.273L68.8161 253H67.4524L64.2251 244.273H65.6797L68.0888 251.227H68.1797L70.5888 244.273H72.0433ZM77.1598 253.182C76.3189 253.182 75.5935 252.996 74.9837 252.625C74.3776 252.25 73.9098 251.727 73.5803 251.057C73.2545 250.383 73.0916 249.598 73.0916 248.705C73.0916 247.811 73.2545 247.023 73.5803 246.341C73.9098 245.655 74.3681 245.121 74.9553 244.739C75.5462 244.352 76.2356 244.159 77.0234 244.159C77.478 244.159 77.9268 244.235 78.37 244.386C78.8132 244.538 79.2166 244.784 79.5803 245.125C79.9439 245.462 80.2337 245.909 80.4496 246.466C80.6655 247.023 80.7734 247.708 80.7734 248.523V249.091H74.0462V247.932H79.4098C79.4098 247.439 79.3113 247 79.1143 246.614C78.9212 246.227 78.6446 245.922 78.2848 245.699C77.9287 245.475 77.5083 245.364 77.0234 245.364C76.4893 245.364 76.0272 245.496 75.6371 245.761C75.2507 246.023 74.9534 246.364 74.745 246.784C74.5367 247.205 74.4325 247.655 74.4325 248.136V248.909C74.4325 249.568 74.5462 250.127 74.7734 250.585C75.0045 251.04 75.3246 251.386 75.7337 251.625C76.1428 251.86 76.6181 251.977 77.1598 251.977C77.5121 251.977 77.8303 251.928 78.1143 251.83C78.4022 251.727 78.6503 251.576 78.8587 251.375C79.067 251.17 79.228 250.917 79.3416 250.614L80.6371 250.977C80.5007 251.417 80.2715 251.803 79.9496 252.136C79.6276 252.466 79.2299 252.723 78.7564 252.909C78.2829 253.091 77.7507 253.182 77.1598 253.182Z" fill="black"/>
</g>
<g filter="url(#filter1_d_876_985)">
<rect x="239" y="448" width="100" height="48" rx="24" fill="white" shape-rendering="crispEdges"/>
<rect x="239.5" y="448.5" width="99" height="47" rx="23.5" stroke="#333333" shape-rendering="crispEdges"/>
<path d="M266 478H262.409V466.364H266.159C267.288 466.364 268.254 466.597 269.057 467.062C269.86 467.525 270.475 468.189 270.903 469.057C271.331 469.92 271.545 470.955 271.545 472.159C271.545 473.371 271.33 474.415 270.898 475.29C270.466 476.161 269.837 476.831 269.011 477.301C268.186 477.767 267.182 478 266 478ZM263.818 476.75H265.909C266.871 476.75 267.669 476.564 268.301 476.193C268.934 475.822 269.405 475.294 269.716 474.608C270.027 473.922 270.182 473.106 270.182 472.159C270.182 471.22 270.028 470.411 269.722 469.733C269.415 469.051 268.956 468.528 268.347 468.165C267.737 467.797 266.977 467.614 266.068 467.614H263.818V476.75ZM273.727 478V469.273H275.068V478H273.727ZM274.409 467.818C274.148 467.818 273.922 467.729 273.733 467.551C273.547 467.373 273.455 467.159 273.455 466.909C273.455 466.659 273.547 466.445 273.733 466.267C273.922 466.089 274.148 466 274.409 466C274.67 466 274.894 466.089 275.08 466.267C275.269 466.445 275.364 466.659 275.364 466.909C275.364 467.159 275.269 467.373 275.08 467.551C274.894 467.729 274.67 467.818 274.409 467.818ZM284.661 469.273L281.433 478H280.07L276.842 469.273H278.297L280.706 476.227H280.797L283.206 469.273H284.661ZM289.777 478.182C288.936 478.182 288.211 477.996 287.601 477.625C286.995 477.25 286.527 476.727 286.197 476.057C285.872 475.383 285.709 474.598 285.709 473.705C285.709 472.811 285.872 472.023 286.197 471.341C286.527 470.655 286.985 470.121 287.572 469.739C288.163 469.352 288.853 469.159 289.641 469.159C290.095 469.159 290.544 469.235 290.987 469.386C291.43 469.538 291.834 469.784 292.197 470.125C292.561 470.462 292.851 470.909 293.067 471.466C293.283 472.023 293.391 472.708 293.391 473.523V474.091H286.663V472.932H292.027C292.027 472.439 291.929 472 291.732 471.614C291.538 471.227 291.262 470.922 290.902 470.699C290.546 470.475 290.125 470.364 289.641 470.364C289.107 470.364 288.644 470.496 288.254 470.761C287.868 471.023 287.571 471.364 287.362 471.784C287.154 472.205 287.05 472.655 287.05 473.136V473.909C287.05 474.568 287.163 475.127 287.391 475.585C287.622 476.04 287.942 476.386 288.351 476.625C288.76 476.86 289.235 476.977 289.777 476.977C290.129 476.977 290.447 476.928 290.732 476.83C291.019 476.727 291.268 476.576 291.476 476.375C291.684 476.17 291.845 475.917 291.959 475.614L293.254 475.977C293.118 476.417 292.889 476.803 292.567 477.136C292.245 477.466 291.847 477.723 291.374 477.909C290.9 478.091 290.368 478.182 289.777 478.182ZM295.43 478V469.273H296.726V470.591H296.817C296.976 470.159 297.264 469.809 297.68 469.54C298.097 469.271 298.567 469.136 299.089 469.136C299.188 469.136 299.311 469.138 299.459 469.142C299.607 469.146 299.718 469.152 299.794 469.159V470.523C299.749 470.511 299.644 470.494 299.482 470.472C299.322 470.445 299.154 470.432 298.976 470.432C298.552 470.432 298.173 470.521 297.839 470.699C297.51 470.873 297.249 471.116 297.055 471.426C296.866 471.733 296.771 472.083 296.771 472.477V478H295.43ZM307.565 471.227L306.361 471.568C306.285 471.367 306.173 471.172 306.026 470.983C305.882 470.79 305.685 470.631 305.435 470.506C305.185 470.381 304.865 470.318 304.474 470.318C303.94 470.318 303.495 470.441 303.139 470.688C302.787 470.93 302.611 471.239 302.611 471.614C302.611 471.947 302.732 472.21 302.974 472.403C303.217 472.597 303.596 472.758 304.111 472.886L305.406 473.205C306.187 473.394 306.768 473.684 307.151 474.074C307.533 474.46 307.724 474.958 307.724 475.568C307.724 476.068 307.58 476.515 307.293 476.909C307.009 477.303 306.611 477.614 306.099 477.841C305.588 478.068 304.993 478.182 304.315 478.182C303.425 478.182 302.688 477.989 302.105 477.602C301.522 477.216 301.152 476.652 300.997 475.909L302.27 475.591C302.391 476.061 302.62 476.413 302.957 476.648C303.298 476.883 303.743 477 304.293 477C304.918 477 305.414 476.867 305.781 476.602C306.152 476.333 306.338 476.011 306.338 475.636C306.338 475.333 306.232 475.08 306.02 474.875C305.808 474.667 305.482 474.511 305.043 474.409L303.588 474.068C302.789 473.879 302.202 473.585 301.827 473.188C301.455 472.786 301.27 472.284 301.27 471.682C301.27 471.189 301.408 470.754 301.685 470.375C301.965 469.996 302.346 469.699 302.827 469.483C303.312 469.267 303.861 469.159 304.474 469.159C305.338 469.159 306.016 469.348 306.509 469.727C307.005 470.106 307.357 470.606 307.565 471.227ZM313.402 478.182C312.561 478.182 311.836 477.996 311.226 477.625C310.62 477.25 310.152 476.727 309.822 476.057C309.497 475.383 309.334 474.598 309.334 473.705C309.334 472.811 309.497 472.023 309.822 471.341C310.152 470.655 310.61 470.121 311.197 469.739C311.788 469.352 312.478 469.159 313.266 469.159C313.72 469.159 314.169 469.235 314.612 469.386C315.055 469.538 315.459 469.784 315.822 470.125C316.186 470.462 316.476 470.909 316.692 471.466C316.908 472.023 317.016 472.708 317.016 473.523V474.091H310.288V472.932H315.652C315.652 472.439 315.554 472 315.357 471.614C315.163 471.227 314.887 470.922 314.527 470.699C314.171 470.475 313.75 470.364 313.266 470.364C312.732 470.364 312.269 470.496 311.879 470.761C311.493 471.023 311.196 471.364 310.987 471.784C310.779 472.205 310.675 472.655 310.675 473.136V473.909C310.675 474.568 310.788 475.127 311.016 475.585C311.247 476.04 311.567 476.386 311.976 476.625C312.385 476.86 312.86 476.977 313.402 476.977C313.754 476.977 314.072 476.928 314.357 476.83C314.644 476.727 314.893 476.576 315.101 476.375C315.309 476.17 315.47 475.917 315.584 475.614L316.879 475.977C316.743 476.417 316.514 476.803 316.192 477.136C315.87 477.466 315.472 477.723 314.999 477.909C314.525 478.091 313.993 478.182 313.402 478.182Z" fill="black"/>
</g>
<g filter="url(#filter2_d_876_985)">
<rect y="672" width="100" height="48" rx="24" fill="white" shape-rendering="crispEdges"/>
<rect x="0.5" y="672.5" width="99" height="47" rx="23.5" stroke="#333333" shape-rendering="crispEdges"/>
<path d="M36.0149 694H34.6058C34.5225 693.595 34.3767 693.239 34.1683 692.932C33.9638 692.625 33.7138 692.367 33.4183 692.159C33.1267 691.947 32.8028 691.788 32.4467 691.682C32.0907 691.576 31.7195 691.523 31.3331 691.523C30.6286 691.523 29.9903 691.701 29.4183 692.057C28.8501 692.413 28.3975 692.938 28.0604 693.631C27.727 694.324 27.5604 695.174 27.5604 696.182C27.5604 697.189 27.727 698.04 28.0604 698.733C28.3975 699.426 28.8501 699.951 29.4183 700.307C29.9903 700.663 30.6286 700.841 31.3331 700.841C31.7195 700.841 32.0907 700.788 32.4467 700.682C32.8028 700.576 33.1267 700.419 33.4183 700.21C33.7138 699.998 33.9638 699.739 34.1683 699.432C34.3767 699.121 34.5225 698.765 34.6058 698.364H36.0149C35.9089 698.958 35.7157 699.491 35.4354 699.96C35.1551 700.43 34.8066 700.83 34.3899 701.159C33.9732 701.485 33.5054 701.733 32.9865 701.903C32.4714 702.074 31.9202 702.159 31.3331 702.159C30.3407 702.159 29.4581 701.917 28.6854 701.432C27.9126 700.947 27.3047 700.258 26.8615 699.364C26.4183 698.47 26.1967 697.409 26.1967 696.182C26.1967 694.955 26.4183 693.894 26.8615 693C27.3047 692.106 27.9126 691.417 28.6854 690.932C29.4581 690.447 30.3407 690.205 31.3331 690.205C31.9202 690.205 32.4714 690.29 32.9865 690.46C33.5054 690.631 33.9732 690.881 34.3899 691.21C34.8066 691.536 35.1551 691.934 35.4354 692.403C35.7157 692.869 35.9089 693.402 36.0149 694ZM40.6783 702.205C40.1252 702.205 39.6233 702.1 39.1726 701.892C38.7218 701.68 38.3639 701.375 38.0987 700.977C37.8336 700.576 37.701 700.091 37.701 699.523C37.701 699.023 37.7995 698.617 37.9964 698.307C38.1934 697.992 38.4567 697.746 38.7862 697.568C39.1158 697.39 39.4794 697.258 39.8771 697.17C40.2786 697.08 40.6821 697.008 41.0874 696.955C41.6177 696.886 42.0476 696.835 42.3771 696.801C42.7105 696.763 42.9529 696.701 43.1044 696.614C43.2597 696.527 43.3374 696.375 43.3374 696.159V696.114C43.3374 695.553 43.1839 695.117 42.8771 694.807C42.5741 694.496 42.1139 694.341 41.4964 694.341C40.8563 694.341 40.3544 694.481 39.9908 694.761C39.6271 695.042 39.3714 695.341 39.2237 695.659L37.951 695.205C38.1783 694.674 38.4813 694.261 38.8601 693.966C39.2427 693.667 39.6593 693.458 40.1101 693.341C40.5646 693.22 41.0116 693.159 41.451 693.159C41.7313 693.159 42.0533 693.193 42.4169 693.261C42.7843 693.326 43.1385 693.46 43.4794 693.665C43.8241 693.869 44.1101 694.178 44.3374 694.591C44.5646 695.004 44.6783 695.557 44.6783 696.25V702H43.3374V700.818H43.2692C43.1783 701.008 43.0268 701.21 42.8146 701.426C42.6025 701.642 42.3203 701.826 41.968 701.977C41.6158 702.129 41.1858 702.205 40.6783 702.205ZM40.8828 701C41.4131 701 41.8601 700.896 42.2237 700.688C42.5911 700.479 42.8677 700.21 43.0533 699.881C43.2427 699.551 43.3374 699.205 43.3374 698.841V697.614C43.2805 697.682 43.1555 697.744 42.9624 697.801C42.773 697.854 42.5533 697.902 42.3033 697.943C42.0571 697.981 41.8165 698.015 41.5817 698.045C41.3506 698.072 41.1631 698.095 41.0192 698.114C40.6707 698.159 40.3449 698.233 40.0419 698.335C39.7427 698.434 39.5002 698.583 39.3146 698.784C39.1328 698.981 39.0419 699.25 39.0419 699.591C39.0419 700.057 39.2143 700.409 39.5589 700.648C39.9074 700.883 40.3487 701 40.8828 701ZM47.1257 702V693.273H48.4212V694.591H48.5121C48.6712 694.159 48.959 693.809 49.3757 693.54C49.7924 693.271 50.2621 693.136 50.7848 693.136C50.8833 693.136 51.0064 693.138 51.1541 693.142C51.3018 693.146 51.4136 693.152 51.4893 693.159V694.523C51.4439 694.511 51.3397 694.494 51.1768 694.472C51.0178 694.445 50.8492 694.432 50.6712 694.432C50.2469 694.432 49.8681 694.521 49.5348 694.699C49.2053 694.873 48.9439 695.116 48.7507 695.426C48.5613 695.733 48.4666 696.083 48.4666 696.477V702H47.1257ZM53.0788 702V693.273H54.4197V702H53.0788ZM53.7607 691.818C53.4993 691.818 53.2739 691.729 53.0845 691.551C52.8989 691.373 52.8061 691.159 52.8061 690.909C52.8061 690.659 52.8989 690.445 53.0845 690.267C53.2739 690.089 53.4993 690 53.7607 690C54.022 690 54.2455 690.089 54.4311 690.267C54.6205 690.445 54.7152 690.659 54.7152 690.909C54.7152 691.159 54.6205 691.373 54.4311 691.551C54.2455 691.729 54.022 691.818 53.7607 691.818ZM58.2166 696.75V702H56.8757V693.273H58.1712V694.636H58.2848C58.4893 694.193 58.8 693.837 59.2166 693.568C59.6333 693.295 60.1712 693.159 60.8303 693.159C61.4212 693.159 61.9382 693.28 62.3814 693.523C62.8246 693.761 63.1693 694.125 63.4155 694.614C63.6617 695.098 63.7848 695.712 63.7848 696.455V702H62.4439V696.545C62.4439 695.86 62.2659 695.326 61.9098 694.943C61.5537 694.557 61.0651 694.364 60.4439 694.364C60.0159 694.364 59.6333 694.456 59.2962 694.642C58.9628 694.828 58.6996 695.098 58.5064 695.455C58.3132 695.811 58.2166 696.242 58.2166 696.75ZM69.7578 705.455C69.1101 705.455 68.5533 705.371 68.0874 705.205C67.6214 705.042 67.2332 704.826 66.9226 704.557C66.6158 704.292 66.3714 704.008 66.1896 703.705L67.2578 702.955C67.379 703.114 67.5324 703.295 67.718 703.5C67.9036 703.708 68.1574 703.888 68.4794 704.04C68.8052 704.195 69.2313 704.273 69.7578 704.273C70.4624 704.273 71.0438 704.102 71.5021 703.761C71.9605 703.42 72.1896 702.886 72.1896 702.159V700.386H72.076C71.9775 700.545 71.8374 700.742 71.6555 700.977C71.4775 701.208 71.2199 701.415 70.8828 701.597C70.5495 701.775 70.0987 701.864 69.5305 701.864C68.826 701.864 68.1934 701.697 67.6328 701.364C67.076 701.03 66.6347 700.545 66.3089 699.909C65.987 699.273 65.826 698.5 65.826 697.591C65.826 696.697 65.9832 695.919 66.2976 695.256C66.612 694.589 67.0495 694.074 67.6101 693.71C68.1707 693.343 68.8184 693.159 69.5533 693.159C70.1214 693.159 70.5722 693.254 70.9055 693.443C71.2427 693.629 71.5002 693.841 71.6783 694.08C71.8601 694.314 72.0002 694.508 72.0987 694.659H72.2351V693.273H73.5305V702.25C73.5305 703 73.3601 703.61 73.0192 704.08C72.6821 704.553 72.2275 704.9 71.6555 705.119C71.0874 705.343 70.4548 705.455 69.7578 705.455ZM69.7124 700.659C70.2502 700.659 70.7048 700.536 71.076 700.29C71.4472 700.044 71.7294 699.689 71.9226 699.227C72.1158 698.765 72.2124 698.212 72.2124 697.568C72.2124 696.939 72.1177 696.384 71.9283 695.903C71.7389 695.422 71.4586 695.045 71.0874 694.773C70.7161 694.5 70.2578 694.364 69.7124 694.364C69.1442 694.364 68.6707 694.508 68.2919 694.795C67.9169 695.083 67.6347 695.47 67.4453 695.955C67.2597 696.439 67.1669 696.977 67.1669 697.568C67.1669 698.174 67.2616 698.71 67.451 699.176C67.6442 699.638 67.9283 700.002 68.3033 700.267C68.6821 700.528 69.1518 700.659 69.7124 700.659Z" fill="black"/>
</g>
<g filter="url(#filter3_d_876_985)">
<rect x="236" width="100" height="48" rx="24" fill="white" shape-rendering="crispEdges"/>
<rect x="236.5" y="0.5" width="99" height="47" rx="23.5" stroke="#333333" shape-rendering="crispEdges"/>
<path d="M255.974 18.3636V30H254.565V18.3636H255.974ZM259.959 24.75V30H258.618V21.2727H259.913V22.6364H260.027C260.232 22.1932 260.542 21.8371 260.959 21.5682C261.375 21.2955 261.913 21.1591 262.572 21.1591C263.163 21.1591 263.68 21.2803 264.124 21.5227C264.567 21.7614 264.911 22.125 265.158 22.6136C265.404 23.0985 265.527 23.7121 265.527 24.4545V30H264.186V24.5455C264.186 23.8598 264.008 23.3258 263.652 22.9432C263.296 22.5568 262.807 22.3636 262.186 22.3636C261.758 22.3636 261.375 22.4564 261.038 22.642C260.705 22.8277 260.442 23.0985 260.249 23.4545C260.055 23.8106 259.959 24.2424 259.959 24.75ZM271.523 30.1818C270.705 30.1818 270 29.9886 269.409 29.6023C268.818 29.2159 268.364 28.6837 268.045 28.0057C267.727 27.3277 267.568 26.553 267.568 25.6818C267.568 24.7955 267.731 24.0133 268.057 23.3352C268.386 22.6534 268.845 22.1212 269.432 21.7386C270.023 21.3523 270.712 21.1591 271.5 21.1591C272.114 21.1591 272.667 21.2727 273.159 21.5C273.652 21.7273 274.055 22.0455 274.369 22.4545C274.684 22.8636 274.879 23.3409 274.955 23.8864H273.614C273.511 23.4886 273.284 23.1364 272.932 22.8295C272.583 22.5189 272.114 22.3636 271.523 22.3636C271 22.3636 270.542 22.5 270.148 22.7727C269.758 23.0417 269.453 23.4223 269.233 23.9148C269.017 24.4034 268.909 24.9773 268.909 25.6364C268.909 26.3106 269.015 26.8977 269.227 27.3977C269.443 27.8977 269.746 28.286 270.136 28.5625C270.53 28.839 270.992 28.9773 271.523 28.9773C271.871 28.9773 272.188 28.9167 272.472 28.7955C272.756 28.6742 272.996 28.5 273.193 28.2727C273.39 28.0455 273.53 27.7727 273.614 27.4545H274.955C274.879 27.9697 274.691 28.4337 274.392 28.8466C274.097 29.2557 273.705 29.5814 273.216 29.8239C272.731 30.0625 272.167 30.1818 271.523 30.1818ZM278.256 18.3636V30H276.915V18.3636H278.256ZM286.212 26.4318V21.2727H287.553V30H286.212V28.5227H286.121C285.916 28.9659 285.598 29.3428 285.166 29.6534C284.734 29.9602 284.189 30.1136 283.53 30.1136C282.984 30.1136 282.5 29.9943 282.075 29.7557C281.651 29.5133 281.318 29.1496 281.075 28.6648C280.833 28.1761 280.712 27.5606 280.712 26.8182V21.2727H282.053V26.7273C282.053 27.3636 282.231 27.8712 282.587 28.25C282.946 28.6288 283.405 28.8182 283.962 28.8182C284.295 28.8182 284.634 28.733 284.979 28.5625C285.327 28.392 285.619 28.1307 285.854 27.7784C286.092 27.4261 286.212 26.9773 286.212 26.4318ZM296.19 23.2273L294.986 23.5682C294.91 23.3674 294.798 23.1723 294.651 22.983C294.507 22.7898 294.31 22.6307 294.06 22.5057C293.81 22.3807 293.49 22.3182 293.099 22.3182C292.565 22.3182 292.12 22.4413 291.764 22.6875C291.412 22.9299 291.236 23.2386 291.236 23.6136C291.236 23.947 291.357 24.2102 291.599 24.4034C291.842 24.5966 292.221 24.7576 292.736 24.8864L294.031 25.2045C294.812 25.3939 295.393 25.6837 295.776 26.0739C296.158 26.4602 296.349 26.9583 296.349 27.5682C296.349 28.0682 296.205 28.5152 295.918 28.9091C295.634 29.303 295.236 29.6136 294.724 29.8409C294.213 30.0682 293.618 30.1818 292.94 30.1818C292.05 30.1818 291.313 29.9886 290.73 29.6023C290.147 29.2159 289.777 28.6515 289.622 27.9091L290.895 27.5909C291.016 28.0606 291.245 28.4129 291.582 28.6477C291.923 28.8826 292.368 29 292.918 29C293.543 29 294.039 28.8674 294.406 28.6023C294.777 28.3333 294.963 28.0114 294.963 27.6364C294.963 27.3333 294.857 27.0795 294.645 26.875C294.433 26.6667 294.107 26.5114 293.668 26.4091L292.213 26.0682C291.414 25.8788 290.827 25.5852 290.452 25.1875C290.08 24.786 289.895 24.2841 289.895 23.6818C289.895 23.1894 290.033 22.7538 290.31 22.375C290.59 21.9962 290.971 21.6989 291.452 21.483C291.937 21.267 292.486 21.1591 293.099 21.1591C293.963 21.1591 294.641 21.3485 295.134 21.7273C295.63 22.1061 295.982 22.6061 296.19 23.2273ZM298.368 30V21.2727H299.709V30H298.368ZM299.05 19.8182C298.788 19.8182 298.563 19.7292 298.374 19.5511C298.188 19.3731 298.095 19.1591 298.095 18.9091C298.095 18.6591 298.188 18.4451 298.374 18.267C298.563 18.089 298.788 18 299.05 18C299.311 18 299.535 18.089 299.72 18.267C299.91 18.4451 300.004 18.6591 300.004 18.9091C300.004 19.1591 299.91 19.3731 299.72 19.5511C299.535 19.7292 299.311 19.8182 299.05 19.8182ZM309.301 21.2727L306.074 30H304.71L301.483 21.2727H302.938L305.347 28.2273H305.438L307.847 21.2727H309.301ZM314.418 30.1818C313.577 30.1818 312.851 29.9962 312.241 29.625C311.635 29.25 311.168 28.7273 310.838 28.0568C310.512 27.3826 310.349 26.5985 310.349 25.7045C310.349 24.8106 310.512 24.0227 310.838 23.3409C311.168 22.6553 311.626 22.1212 312.213 21.7386C312.804 21.3523 313.493 21.1591 314.281 21.1591C314.736 21.1591 315.185 21.2348 315.628 21.3864C316.071 21.5379 316.474 21.7841 316.838 22.125C317.202 22.4621 317.491 22.9091 317.707 23.4659C317.923 24.0227 318.031 24.7083 318.031 25.5227V26.0909H311.304V24.9318H316.668C316.668 24.4394 316.569 24 316.372 23.6136C316.179 23.2273 315.902 22.9223 315.543 22.6989C315.187 22.4754 314.766 22.3636 314.281 22.3636C313.747 22.3636 313.285 22.4962 312.895 22.7614C312.509 23.0227 312.211 23.3636 312.003 23.7841C311.795 24.2045 311.69 24.6553 311.69 25.1364V25.9091C311.69 26.5682 311.804 27.1269 312.031 27.5852C312.262 28.0398 312.582 28.3864 312.991 28.625C313.401 28.8598 313.876 28.9773 314.418 28.9773C314.77 28.9773 315.088 28.928 315.372 28.8295C315.66 28.7273 315.908 28.5758 316.116 28.375C316.325 28.1705 316.486 27.9167 316.599 27.6136L317.895 27.9773C317.759 28.4167 317.529 28.803 317.207 29.1364C316.885 29.4659 316.488 29.7235 316.014 29.9091C315.541 30.0909 315.009 30.1818 314.418 30.1818Z" fill="black"/>
</g>
<defs>
<filter id="filter0_d_876_985" x="0" y="223" width="104" height="54" filterUnits="userSpaceOnUse" color-interpolation-filters="sRGB">
<feFlood flood-opacity="0" result="BackgroundImageFix"/>
<feColorMatrix in="SourceAlpha" type="matrix" values="0 0 0 0 0 0 0 0 0 0 0 0 0 0 0 0 0 0 127 0" result="hardAlpha"/>
<feOffset dx="4" dy="6"/>
<feComposite in2="hardAlpha" operator="out"/>
<feColorMatrix type="matrix" values="0 0 0 0 0.2 0 0 0 0 0.2 0 0 0 0 0.2 0 0 0 1 0"/>
<feBlend mode="normal" in2="BackgroundImageFix" result="effect1_dropShadow_876_985"/>
<feBlend mode="normal" in="SourceGraphic" in2="effect1_dropShadow_876_985" result="shape"/>
</filter>
<filter id="filter1_d_876_985" x="239" y="448" width="104" height="54" filterUnits="userSpaceOnUse" color-interpolation-filters="sRGB">
<feFlood flood-opacity="0" result="BackgroundImageFix"/>
<feColorMatrix in="SourceAlpha" type="matrix" values="0 0 0 0 0 0 0 0 0 0 0 0 0 0 0 0 0 0 127 0" result="hardAlpha"/>
<feOffset dx="4" dy="6"/>
<feComposite in2="hardAlpha" operator="out"/>
<feColorMatrix type="matrix" values="0 0 0 0 0.2 0 0 0 0 0.2 0 0 0 0 0.2 0 0 0 1 0"/>
<feBlend mode="normal" in2="BackgroundImageFix" result="effect1_dropShadow_876_985"/>
<feBlend mode="normal" in="SourceGraphic" in2="effect1_dropShadow_876_985" result="shape"/>
</filter>
<filter id="filter2_d_876_985" x="0" y="672" width="104" height="54" filterUnits="userSpaceOnUse" color-interpolation-filters="sRGB">
<feFlood flood-opacity="0" result="BackgroundImageFix"/>
<feColorMatrix in="SourceAlpha" type="matrix" values="0 0 0 0 0 0 0 0 0 0 0 0 0 0 0 0 0 0 127 0" result="hardAlpha"/>
<feOffset dx="4" dy="6"/>
<feComposite in2="hardAlpha" operator="out"/>
<feColorMatrix type="matrix" values="0 0 0 0 0.2 0 0 0 0 0.2 0 0 0 0 0.2 0 0 0 1 0"/>
<feBlend mode="normal" in2="BackgroundImageFix" result="effect1_dropShadow_876_985"/>
<feBlend mode="normal" in="SourceGraphic" in2="effect1_dropShadow_876_985" result="shape"/>
</filter>
<filter id="filter3_d_876_985" x="236" y="0" width="104" height="54" filterUnits="userSpaceOnUse" color-interpolation-filters="sRGB">
<feFlood flood-opacity="0" result="BackgroundImageFix"/>
<feColorMatrix in="SourceAlpha" type="matrix" values="0 0 0 0 0 0 0 0 0 0 0 0 0 0 0 0 0 0 127 0" result="hardAlpha"/>
<feOffset dx="4" dy="6"/>
<feComposite in2="hardAlpha" operator="out"/>
<feColorMatrix type="matrix" values="0 0 0 0 0.2 0 0 0 0 0.2 0 0 0 0 0.2 0 0 0 1 0"/>
<feBlend mode="normal" in2="BackgroundImageFix" result="effect1_dropShadow_876_985"/>
<feBlend mode="normal" in="SourceGraphic" in2="effect1_dropShadow_876_985" result="shape"/>
</filter>
</defs>
</svg>
