<svg width="62" height="62" viewBox="0 0 62 62" fill="none" xmlns="http://www.w3.org/2000/svg">
<path fill-rule="evenodd" clip-rule="evenodd" d="M50.1837 43.6995L60.6626 54.1783C62.4453 55.9611 62.4453 58.8794 60.6626 60.662C58.8799 62.4447 55.9629 62.4447 54.1802 60.662L43.6996 50.1814L38.6197 56.9111C37.7746 58.0307 36.0383 57.7994 35.5158 56.4959L23.0705 25.4042C22.4858 23.9441 23.9476 22.4823 25.4075 23.0671L56.4993 35.5147C57.8027 36.0371 58.0346 37.7718 56.9145 38.6185L50.1847 43.6984L50.1837 43.6995Z" fill="#111111"/>
<path d="M7.33586 9.6227C6.70315 8.99 6.70315 7.96632 7.33586 7.33359C7.96857 6.70261 8.99225 6.70261 9.62321 7.33359L19.5398 17.2502C20.1708 17.8812 20.1708 18.9053 19.5398 19.5376C18.9071 20.1703 17.8834 20.1703 17.2507 19.5376L7.33586 9.6227Z" fill="#111111"/>
<path d="M23.4258 1.61664C23.4258 0.723581 24.1493 0 25.0441 0C25.9371 0 26.6607 0.723537 26.6607 1.61664V15.6396C26.6607 16.5327 25.9372 17.2563 25.0441 17.2563C24.1497 17.2563 23.4258 16.5328 23.4258 15.6396V1.61664Z" fill="#111111"/>
<path d="M40.4657 7.33359C41.0984 6.70261 42.1221 6.70261 42.753 7.33359C43.3857 7.96629 43.3857 8.98998 42.753 9.6227L32.838 19.5377C32.2071 20.1704 31.1817 20.1704 30.5507 19.5377C29.918 18.905 29.918 17.8813 30.5507 17.2503L40.4657 7.33359Z" fill="#111111"/>
<path d="M1.6183 26.6599C0.725242 26.6599 0 25.9347 0 25.0416C0 24.1486 0.725264 23.4233 1.6183 23.4233H15.6402C16.5346 23.4233 17.2585 24.1486 17.2585 25.0416C17.2585 25.9347 16.535 26.6599 15.6402 26.6599H1.6183Z" fill="#111111"/>
<path d="M9.62321 42.753C8.99223 43.384 7.96814 43.384 7.33586 42.753C6.70315 42.1203 6.70315 41.0966 7.33586 40.4639L17.2508 30.5489C17.8835 29.9179 18.9072 29.9179 19.5399 30.5489C20.1709 31.1816 20.1709 32.2053 19.5399 32.838L9.62321 42.753Z" fill="#111111"/>
</svg>
